<?xml version="1.0" standalone="no"?>
<!DOCTYPE svg PUBLIC "-//W3C//DTD SVG 1.1//EN" "http://www.w3.org/Graphics/SVG/1.1/DTD/svg11.dtd" >
<svg xmlns="http://www.w3.org/2000/svg" xmlns:xlink="http://www.w3.org/1999/xlink" version="1.1">
<metadata>
Created by FontForge 20170731 at Mon Aug 30 04:00:00 1999
 By Aleksey,,,
(c) 1999 pearlygates
</metadata>
<defs>
<font id="MilleniumBug" horiz-adv-x="618" >
  <font-face 
    font-family="Millenium Bug"
    font-weight="400"
    font-stretch="normal"
    units-per-em="2048"
    panose-1="5 1 1 1 1 1 1 1 1 1"
    ascent="1638"
    descent="-410"
    x-height="1008"
    cap-height="1365"
    bbox="-119 -387 1612 1507"
    underline-thickness="102"
    underline-position="-409"
    unicode-range="U+0020-00FF"
  />
<missing-glyph horiz-adv-x="1658" 
d="M256 0v1280h1024v-1280h-1024zM288 32h960v1216h-960v-1216z" />
    <glyph glyph-name=".notdef" horiz-adv-x="1658" 
d="M256 0v1280h1024v-1280h-1024zM288 32h960v1216h-960v-1216z" />
    <glyph glyph-name=".null" horiz-adv-x="0" 
 />
    <glyph glyph-name="nonmarkingreturn" horiz-adv-x="1024" 
 />
    <glyph glyph-name="space" unicode=" " horiz-adv-x="1024" 
 />
    <glyph glyph-name="space" unicode="&#xa0;" horiz-adv-x="1024" 
 />
    <glyph glyph-name="exclam" unicode="!" horiz-adv-x="475" 
d="M296 480l-123 715q-3 18 -3 36q0 154 201 154t201 -153q0 -21 -3 -37l-123 -715h-150zM300 359q32 -8 28 -36q-60 -24 -48 -84q-40 -8 -52 -40l-32 -8l-4 -24q-48 -44 -32 -112q24 -40 60 -56h108q4 8 12 8h28q72 -12 120 -8q56 48 48 112q8 80 -60 116q12 68 -40 96
q0 28 24 28v24q-48 4 -48 -44h-44q-16 16 -12 36q-32 8 -56 8v-16zM348 63q-60 -80 -164 -4l-4 44q28 -40 64 -12q-4 40 -48 32q48 80 120 92q76 -52 32 -152zM512 143q12 -52 -4 -96q-140 -116 -128 124q12 24 28 40q76 0 104 -68zM284 147q20 16 20 36q-20 8 -36 4
q-24 -36 16 -40zM444 143q16 48 -36 44q-12 -52 36 -44zM456 99q72 -28 48 32q-12 12 -28 8q-24 -16 -20 -40zM408 63q24 -12 44 -8q24 48 -32 44q-12 -16 -12 -36zM268 47l44 -4q12 48 -36 44q-16 -20 -8 -40z" />
    <glyph glyph-name="quotedbl" unicode="&#x22;" horiz-adv-x="368" 
d="M401 1386v-127q-88 -53 -115 -152q161 0 161 -171q0 -176 -177 -176q-174 0 -174 209q0 325 305 417z" />
    <glyph glyph-name="numbersign" unicode="#" 
 />
    <glyph glyph-name="dollar" unicode="$" horiz-adv-x="1049" 
d="M620 1278v-376l27 -11l168 -67q312 -129 312 -420q0 -187 -133.5 -307t-343.5 -120h-30v-154h-72v154q-434 45 -434 370q0 34 8 94l189 47q-23 -89 -23 -149q0 -233 260 -254v422q-422 139 -422 457q0 384 422 420v123h72v-117q450 0 450 -403l-187 -38q14 49 14 89
q0 224 -277 240zM548 1272q-15 3 -21 3q-152 0 -152 -162q0 -115 173 -184v343zM620 85q193 29 193 188q0 135 -193 207v-395zM509 801q-78 -112 45 -163q81 -35 106 73q2 68 -69 105q-50 9 -82 -15zM654 628q8 -75 76 -97t103 40q36 87 -65 135q-95 -3 -114 -78zM764 563
q-61 -2 -67 52q23 48 72 54q64 -50 -5 -106zM591 670h-24q-42 15 -48 52q13 47 50 63q85 -45 22 -115zM798 494q2 -77 79 -103q90 -4 125 57q10 67 -64 106q-103 5 -140 -60zM330 850q33 -14 61 -5l19 -23q-22 -23 -51 -26q-12 -12 -23 -16q-20 -35 -16 -77q87 -25 155 -9
q-8 42 -114 34q9 24 32 32q121 41 7 116q-92 24 -70 -26zM910 432q-51 -8 -73 42q35 37 82 47q93 -64 -9 -89z" />
    <glyph glyph-name="percent" unicode="%" horiz-adv-x="865" 
d="M194 481v328h143q30 -149 127 -149q130 0 130 244q0 373 -164 373q-127 0 -127 -183q0 -48 12 -139l-154 46q-18 83 -18 121q0 264 343 264q436 0 436 -418q0 -172 -107.5 -294.5t-257.5 -122.5q-102 0 -209 75v-145h-154zM227 381q32 -8 28 -36q-60 -24 -48 -84
q-40 -8 -52 -40l-32 -8l-4 -24q-48 -44 -32 -112q24 -40 60 -56h108q4 8 12 8h28q72 -12 120 -8q56 48 48 112q8 80 -60 116q12 68 -40 96q0 28 24 28v24q-48 4 -48 -44h-44q-16 16 -12 36q-32 8 -56 8v-16zM275 85q-60 -80 -164 -4l-4 44q28 -40 64 -12q-4 40 -48 32
q48 80 120 92q76 -52 32 -152zM439 165q12 -52 -4 -96q-140 -116 -128 124q12 24 28 40q76 0 104 -68zM211 169q20 16 20 36q-20 8 -36 4q-24 -36 16 -40zM371 165q16 48 -36 44q-12 -52 36 -44zM383 121q72 -28 48 32q-12 12 -28 8q-24 -16 -20 -40zM335 85q24 -12 44 -8
q24 48 -32 44q-12 -16 -12 -36zM195 69l44 -4q12 48 -36 44q-16 -20 -8 -40z" />
    <glyph glyph-name="ampersand" unicode="&#x26;" 
 />
    <glyph glyph-name="quotesingle" unicode="'" horiz-adv-x="804" 
d="M144 760v126q88 53 114 152q-160 0 -160 171q0 176 177 176q174 0 174 -209q0 -326 -305 -416zM581 760v126q88 53 114 152q-160 0 -160 171q0 176 177 176q174 0 174 -209q0 -325 -305 -416z" />
    <glyph glyph-name="parenleft" unicode="(" horiz-adv-x="634" 
d="M683 1411v-131q-268 -302 -268 -792q0 -482 268 -785v-90q-596 259 -596 899t596 899zM218 291q136 0 108 130q-17 87 -121 46q-57 -37 -46 -117q21 -46 59 -59zM278 509q56 49 35.5 117.5t-91.5 62.5q-92 -20 -74 -131q57 -75 130 -49zM268 637q36 -49 -5 -85
q-52 -9 -85 29q5 80 90 56zM278 433l14 -19q11 -43 -15 -69q-46 -16 -81 5q-11 95 82 83zM305 704q62 45 40 124q-48 76 -119 69q-60 -29 -50 -112q54 -88 129 -81zM280 116q-9 36 -31 54l8 29q31 -6 51 -28q15 -3 25 -10q40 4 73 31q-29 85 -82 133q-29 -31 37 -113
q-24 -6 -43 8q-104 75 -100 -61q33 -89 62 -43zM292 831q36 -37 7 -83q-50 7 -86 40q1 112 79 43z" />
    <glyph glyph-name="parenright" unicode=")" horiz-adv-x="638" 
d="M80 -387v131q267 303 267 792q0 482 -267 785v90q595 -259 595 -899t-595 -899zM553 714q-136 7 -115 -124q12 -87 118 -52q59 34 53 113q-18 48 -56 63zM481 500q-59 -46 -42.5 -115.5t88.5 -67.5q93 15 81 126q-52 79 -127 57zM484 372q-34 51 9 84q53 6 84 -33
q-10 -81 -93 -51zM485 576l-13 19q-9 44 19 69q47 13 81 -10q5 -96 -87 -78zM443 307q-65 -42 -47 -122q43 -78 114 -76q62 26 56 109q-49 91 -123 89zM502 892q6 -36 27 -55l-9 -29q-31 8 -49 31q-16 3 -25 11q-40 -1 -75 -26q25 -87 74 -138q31 29 -30 115q24 5 43 -10
q99 -81 102 55q-27 91 -58 46zM448 179q-33 39 -2 84q49 -11 83 -46q-7 -112 -81 -38z" />
    <glyph glyph-name="asterisk" unicode="*" 
 />
    <glyph glyph-name="plus" unicode="+" 
 />
    <glyph glyph-name="comma" unicode="," 
d="M164 -280v127q88 53 114 152q-160 0 -160 171q0 176 177 176q174 0 174 -209q0 -325 -305 -417z" />
    <glyph glyph-name="hyphen" unicode="-" 
 />
    <glyph glyph-name="period" unicode="." horiz-adv-x="370" 
d="M301 444q176 0 176 -176t-176 -176t-176 176t176 176z" />
    <glyph glyph-name="slash" unicode="/" 
 />
    <glyph glyph-name="zero" unicode="0" horiz-adv-x="1175" 
d="M626 1386q571 0 571 -704t-571 -704q-572 0 -572 704t572 704zM626 1277q-156 0 -156 -595t156 -595q155 0 155 595t-155 595zM177 519q175 -27 158 107q-8 89 -146 69q-79 -25 -78 -106q20 -50 66 -70zM287 722q80 38 64 109.5t-108 79.5q-120 -2 -114 -115
q61 -85 158 -74zM290 851q52 -49 -15 -83q-68 2 -104 45q19 83 119 38zM277 647l14 -21q8 -45 -30 -66q-61 -7 -102 21q0 96 118 66zM352 910q87 32 70 114q-49 85 -141 92q-81 -17 -81 -101q56 -97 152 -105zM230 334q-5 37 -31 59l14 27q39 -12 61 -38q20 -5 31 -14
q52 -5 97 15q-24 91 -83 148q-42 -24 30 -119q-32 -1 -55 17q-120 95 -136 -41q28 -94 72 -54zM355 1038q40 -44 -3 -84q-63 17 -104 57q18 111 107 27z" />
    <glyph glyph-name="one" unicode="1" horiz-adv-x="701" 
d="M863 1365v-1365h-382v1028q-153 -74 -284 -83v180q301 30 424 240h242zM518 888q36 -88 180 -68q88 12 88 96q-12 76 -176 64q-96 -8 -92 -92zM730 884q-64 -44 -140 -16q-44 52 24 72q128 20 116 -56zM518 680q36 -40 76 -52q196 -24 192 100l-8 32q-80 36 -164 32
q-104 -16 -96 -112zM682 748l36 -4q48 -112 -132 -64q-36 52 28 68h68zM518 488q36 -40 76 -52q196 -24 192 100l-8 32q-80 36 -164 32q-104 -16 -96 -112zM714 476h-124q-20 28 -20 56q20 20 44 24q160 16 100 -80zM522 296q28 -20 56 -8q-20 56 24 76l8 -8l16 -24
q28 -20 36 -48q64 -28 124 -24v112q-44 112 -56 -68l-36 20q-36 72 -100 84q-96 -24 -72 -112z" />
    <glyph glyph-name="two" unicode="2" horiz-adv-x="1081" 
d="M1118 328v-328h-1018v193q125 138 287 294q363 347 363 531q0 245 -194 245q-236 0 -236 -296q0 -70 34 -197l-211 50q-24 94 -24 151q0 415 513 415q217 0 357 -107t140 -274q0 -191 -277 -416l-124 -100l-137 -115q-13 -11 -64 -46h591zM897 296q-88 -36 -69 -180
q12 -88 96 -88q76 12 65 176q-8 96 -92 92zM892 84q-44 64 -15 140q52 44 72 -24q19 -128 -57 -116zM689 296q-40 -36 -52 -76q-25 -196 99 -192l32 8q36 80 33 164q-16 104 -112 96zM756 132l-4 -36q-112 -48 -63 132q52 36 68 -28zM497 297q-40 -36 -52 -76
q-25 -196 99 -193l32 8q36 80 33 164q-16 104 -112 97zM484 101l1 124q28 19 56 19q20 -20 24 -44q15 -160 -81 -99zM305 293q-20 -28 -8 -56q56 20 76 -24l-8 -8l-24 -16q-20 -28 -49 -36q-28 -64 -24 -124h112q112 44 -68 56l20 36q72 36 85 100q-24 96 -112 72z" />
    <glyph glyph-name="three" unicode="3" horiz-adv-x="1087" 
d="M109 450l183 10q-23 -79 -26 -141q-10 -219 231 -219q237 0 237 267q0 270 -283 270l-108 -2v161l78 -1q298 0 298 252q0 219 -211 219q-208 0 -208 -193q0 -47 12 -109l-183 38q0 387 450 387q519 0 519 -354q0 -232 -293 -315q332 -76 332 -344q0 -399 -553 -399
q-492 0 -492 330q0 62 17 143zM817 695q-174 -27 -118 -149q35 -83 160 -22q67 48 42 124q-34 42 -84 47zM773 468q-64 -59 -27.5 -122.5t126.5 -43.5q115 38 75 143q-84 64 -174 23zM805 344q-54 41 -6 85q65 18 113 -12q6 -81 -107 -73zM761 543l-20 16q-22 41 8 72
q56 25 104 11q29 -92 -92 -99zM768 270q-73 -57 -32 -130q72 -66 162 -46q73 41 47 121q-83 76 -177 55zM711 856q16 -33 48 -47l-6 -30q-41 -1 -69 17q-21 0 -34 5q-51 -11 -89 -44q51 -79 125 -116q32 36 -65 105q31 10 57 0q144 -54 118 80q-55 82 -85 30zM804 147
q-51 30 -22 81q65 2 116 -23q17 -111 -94 -58z" />
    <glyph glyph-name="four" unicode="4" horiz-adv-x="1088" 
d="M1132 285h-151v-285h-388v285h-508v169l636 911h260v-926h151v-154zM262 439h337v522zM647 963q36 -88 180 -68q88 12 88 96q-12 76 -176 64q-96 -8 -92 -92zM859 959q-64 -44 -140 -16q-44 52 24 72q128 20 116 -56zM647 755q36 -40 76 -52q196 -24 192 100l-8 32
q-80 36 -164 32q-104 -16 -96 -112zM811 823l36 -4q48 -112 -132 -64q-36 52 28 68h68zM647 563q36 -40 76 -52q196 -24 192 100l-8 32q-80 36 -164 32q-104 -16 -96 -112zM843 551h-124q-20 28 -20 56q20 20 44 24q160 16 100 -80zM651 371q28 -20 56 -8q-20 56 24 76l8 -8
l16 -24q28 -20 36 -48q64 -28 124 -24v112q-44 112 -56 -68l-36 20q-36 72 -100 84q-96 -24 -72 -112z" />
    <glyph glyph-name="five" unicode="5" horiz-adv-x="1075" 
d="M1060 1365l-52 -287h-647l-51 -292q164 111 340 111q213 0 349.5 -125t136.5 -320q0 -218 -153.5 -346.5t-414.5 -128.5q-472 0 -472 324q0 47 14 116l177 37q-17 -82 -17 -150q0 -204 217 -204q260 0 260 369q0 261 -221 261q-132 0 -235 -140l-158 38l128 737h799z
M912 1347q-89 -34 -73 -178q10 -89 94 -91q76 10 69 174q-6 97 -90 95zM903 1135q-43 65 -13 140q53 43 72 -25q16 -129 -59 -115zM704 1352q-41 -34 -54 -74q-29 -195 95 -195l32 7q38 79 37 163q-14 105 -110 99zM768 1187l-5 -36q-113 -45 -61 133q53 35 68 -29z
M512 1358q-41 -35 -54 -75q-29 -195 95 -195l32 8q39 79 37 163q-13 104 -110 99zM495 1162l3 124q29 19 57 18q19 -20 23 -44q11 -161 -83 -98zM320 1359q-20 -28 -9 -56q56 18 75 -26l-8 -8l-24 -15q-21 -28 -49 -35q-30 -63 -28 -123l112 -3q113 41 -66 58l21 35
q73 34 86 98q-21 96 -110 75z" />
    <glyph glyph-name="six" unicode="6" horiz-adv-x="1105" 
d="M1103 1012l-182 -30q12 66 12 113q0 184 -174 184q-125 0 -175.5 -98.5t-74.5 -386.5q125 109 260 109q176 0 292 -123t116 -310q0 -225 -136.5 -360t-363.5 -135q-584 0 -584 684q0 333 167.5 531t449.5 198q397 0 397 -313q0 -27 -4 -63zM726 780q-157 0 -157 -316
q0 -363 148 -363q144 0 144 384q0 295 -135 295zM230 445q174 -27 158 106q-9 90 -147 69q-78 -25 -77 -105q20 -50 66 -70zM340 648q80 37 64 108.5t-108 79.5q-121 -1 -114 -114q61 -86 158 -74zM347 776q39 -56 -19 -83q-68 2 -105 45q19 79 124 38zM329 573l15 -22
q8 -45 -30 -65q-61 -7 -103 21q1 96 118 66zM404 835q87 33 70 114q-48 85 -140 93q-82 -17 -81 -101q56 -98 151 -106zM282 259q-5 37 -31 59l15 27q39 -11 61 -37q19 -6 30 -15q52 -4 98 16q-24 90 -83 148q-43 -25 29 -120q-32 -1 -54 17q-121 95 -136 -40q28 -95 71 -55
zM407 963q41 -43 -3 -84q-63 18 -103 57q17 111 106 27z" />
    <glyph glyph-name="seven" unicode="7" horiz-adv-x="1051" 
d="M1121 1365v-210q-353 -462 -353 -1075v-80h-442q36 595 476 1054h-703l47 311h975zM880 1337q-89 -34 -71 -179q10 -88 94 -89q76 11 67 175q-6 96 -90 93zM872 1125q-43 65 -14 141q53 43 72 -26q18 -128 -58 -115zM672 1341q-41 -36 -54 -75q-27 -196 97 -194l32 7
q38 80 35 164q-14 104 -110 98zM737 1176l-5 -36q-113 -46 -62 133q53 35 68 -29zM480 1344q-41 -35 -54 -75q-27 -196 97 -194l32 8q38 79 35 163q-14 104 -110 98zM464 1148l2 124q29 20 57 19q19 -20 23 -44q13 -160 -82 -99zM288 1343q-21 -27 -9 -56q56 19 75 -25
l-8 -8l-24 -15q-21 -28 -49 -36q-29 -63 -26 -123l112 -2q113 42 -67 57l21 36q72 35 85 98q-22 97 -110 74z" />
    <glyph glyph-name="eight" unicode="8" horiz-adv-x="1138" 
d="M285 650q-183 128 -183 321q0 185 142.5 299t374.5 114q203 0 328.5 -88.5t125.5 -231.5q0 -159 -167 -255q273 -144 273 -385q0 -201 -156.5 -325.5t-409.5 -124.5q-234 0 -388 112.5t-154 282.5q0 185 214 281zM381 593q-136 -84 -136 -224q0 -118 106 -202t253 -84
q115 0 195 62t80 150q0 144 -228 212q-112 33 -270 86zM813 851q86 75 86 178q0 246 -289 246q-245 0 -245 -177q0 -107 220 -176l155 -48q23 -8 73 -23zM644 801q-110 -138 14 -190q82 -37 133 93q17 81 -54 120q-53 8 -93 -23zM766 605q-7 -88 63 -109.5t122 54.5
q59 105 -43 156q-104 -11 -142 -101zM873 536q-67 -7 -62 57q35 58 91 69q59 -56 -29 -126zM706 651l-26 -1q-43 15 -42 58q24 56 69 79q83 -48 -1 -136zM896 456q-14 -91 65 -117q98 0 150 76q26 80 -48 121q-112 -1 -167 -80zM457 848q34 -14 66 -3l17 -25
q-30 -29 -63 -35q-15 -14 -28 -19q-30 -43 -35 -93q91 -24 170 -1q-1 49 -118 33q15 29 41 40q142 57 33 138q-97 22 -83 -35zM1006 390q-58 -13 -71 45q46 46 101 61q87 -70 -30 -106z" />
    <glyph glyph-name="nine" unicode="9" horiz-adv-x="1125" 
d="M150 344l181 36q-10 -60 -10 -106q0 -188 178 -188q123 0 171.5 95.5t72.5 387.5q-125 -114 -256 -114q-180 0 -295 125.5t-115 321.5q0 219 138.5 352.5t365.5 133.5q579 0 579 -696q0 -333 -167 -524t-457 -191q-389 0 -389 291q0 27 3 76zM612 1279q-146 0 -146 -377
q0 -307 128 -307q163 0 163 330q0 354 -145 354zM1009 952q-175 14 -149 -118q15 -89 151 -58q77 31 70 111q-24 48 -72 65zM915 741q-77 -43 -55.5 -113.5t113.5 -71.5q120 11 105 123q-67 81 -163 62zM917 613q-43 52 13 84q68 3 108 -38q-13 -80 -121 -46zM920 817
l-16 20q-11 44 25 68q60 11 104 -14q6 -96 -113 -74zM864 549q-84 -39 -61 -119q55 -81 147 -82q80 23 73 107q-63 93 -159 94zM944 1133q7 -37 35 -57l-12 -28q-40 9 -64 33q-20 4 -32 12q-52 1 -96 -22q31 -89 94 -142q40 28 -38 117q32 3 55 -13q127 -85 133 51
q-35 92 -75 49zM871 421q-44 41 -3 84q64 -12 107 -49q-9 -112 -104 -35z" />
    <glyph glyph-name="colon" unicode=":" horiz-adv-x="398" 
d="M292 333q176 0 176 -176t-176 -176t-176 176t176 176zM292 959q176 0 176 -176t-176 -176t-176 176t176 176z" />
    <glyph glyph-name="semicolon" unicode=";" horiz-adv-x="424" 
d="M164 -280v127q88 53 114 152q-160 0 -160 171q0 176 177 176q174 0 174 -209q0 -324 -305 -417zM292 959q176 0 176 -176t-176 -176t-176 176t176 176z" />
    <glyph glyph-name="less" unicode="&#x3c;" 
 />
    <glyph glyph-name="equal" unicode="=" 
 />
    <glyph glyph-name="greater" unicode="&#x3e;" 
 />
    <glyph glyph-name="question" unicode="?" 
 />
    <glyph glyph-name="at" unicode="@" 
 />
    <glyph glyph-name="A" unicode="A" horiz-adv-x="1148" 
d="M738 1365l380 -1365h-398l-81 296h-411l-87 -296h-155l404 1365h348zM267 433h335l-161 605zM743 935l-15 -19q-18 0 -32 7q-81 78 -184 36q5 -115 74 -137q24 46 -8 108l24 1q5 -7 14 -7l5 -7q27 -10 39 -29q20 -6 39 -20q158 36 57 146q-59 -2 -13 -79zM744 849
l-113 -36v-9q-40 -34 -53 -77l35 -63q182 -30 241 111l-14 43l-48 29q-25 -5 -48 2zM708 710q-75 -24 -69 58l129 42q66 -83 -60 -100zM655 598q-1 -13 0 -18q-34 -50 15 -93q106 -23 189 34l25 5l-4 11q24 19 24 46l11 3l-16 49q-28 14 -44 27q-118 -2 -200 -64zM859 565
l-11 -3q-57 -33 -107 -44l-27 1q-51 75 115 102q25 -22 30 -56zM707 338q31 -70 108 -33l7 -13l11 4q40 15 65 20v9l7 6l23 10l26 14q38 84 -40 124q-224 2 -207 -141zM909 374q-149 -81 -150 5v17q72 36 129 42q36 -27 21 -64z" />
    <glyph glyph-name="B" unicode="B" horiz-adv-x="1199" 
d="M117 0v1365h607q469 0 469 -335q0 -238 -283 -305q341 -68 341 -362q0 -363 -459 -363h-675zM513 113h113q222 0 222 254q0 291 -229 291h-106v-545zM513 771h122q169 0 169 250q0 231 -179 231h-112v-481zM181 940q36 -88 184 -68q112 28 76 132q-88 36 -168 28
q-96 -8 -92 -92zM393 936q-64 -44 -140 -16q-44 52 24 72q128 20 116 -56zM181 732q36 -40 76 -52q196 -24 192 100l-8 32q-80 36 -164 32q-104 -16 -96 -112zM345 800l36 -4q48 -112 -132 -64q-36 52 28 68h68zM181 540q36 -40 76 -52q196 -24 192 100l-8 32
q-80 36 -164 32q-104 -16 -96 -112zM385 600q36 -108 -140 -64q-28 56 32 72q60 4 108 -8zM185 348q28 -20 56 -8q-20 56 24 76l8 -8l16 -24q28 -20 36 -48q64 -28 124 -24v112q-44 112 -56 -68l-36 20q-36 72 -100 84q-96 -24 -72 -112z" />
    <glyph glyph-name="C" unicode="C" horiz-adv-x="1192" 
d="M1022 548l169 -44q4 -52 4 -90q0 -199 -144 -318t-386 -119q-607 0 -607 683q0 324 177 525.5t461 201.5q443 0 443 -426l-170 -78q3 60 3 93q0 302 -242 302q-256 0 -256 -641q0 -551 286 -551q118 0 196.5 94t78.5 235q0 45 -13 133zM313 882h36q108 28 76 128
q-68 76 -160 72q-144 -96 48 -200zM333 1030q68 -36 36 -92q-48 -28 -116 36q0 36 16 64q36 0 64 -8zM153 774q24 -92 116 -84q112 0 112 108q-40 84 -140 76q-92 -20 -88 -100zM273 826q24 -8 44 -8q48 -116 -100 -72q-40 40 0 80h56zM153 586q-4 -48 24 -88
q156 -64 204 56q0 112 -108 108q-88 -8 -120 -76zM313 614q36 -40 4 -76q-64 -32 -116 0q-8 60 44 76h68zM405 386l-28 -4q-108 88 -160 8q-8 -92 68 -108q16 32 -28 84q4 12 12 16l32 -4q76 -64 160 -16q-32 88 -96 140q-40 -28 40 -116z" />
    <glyph glyph-name="D" unicode="D" horiz-adv-x="1250" 
d="M118 0v1365h566q603 0 603 -684q0 -681 -625 -681h-544zM514 113h104q143 0 198 123.5t55 446.5t-54.5 446t-198.5 123h-104v-1139zM170 900q36 -88 184 -68q112 28 76 132q-88 36 -168 28q-96 -8 -92 -92zM382 896q-64 -44 -140 -16q-44 52 24 72q128 20 116 -56z
M170 692q36 -40 76 -52q196 -24 192 100l-8 32q-80 36 -164 32q-104 -16 -96 -112zM334 760l36 -4q48 -112 -132 -64q-36 52 28 68h68zM170 500q36 -40 76 -52q196 -24 192 100l-8 32q-80 36 -164 32q-104 -16 -96 -112zM374 560q36 -108 -140 -64q-28 56 32 72q60 4 108 -8
zM174 308q28 -20 56 -8q-20 56 24 76l8 -8l16 -24q28 -20 36 -48q64 -28 124 -24v112q-44 112 -56 -68l-36 20q-36 72 -100 84q-96 -24 -72 -112z" />
    <glyph glyph-name="E" unicode="E" horiz-adv-x="1040" 
d="M1002 1365v-137h-489v-413h411v-137h-411v-541h572v-137h-968v1365h885zM192 968q36 -88 184 -68q112 28 76 132q-88 36 -168 28q-96 -8 -92 -92zM404 964q-64 -44 -140 -16q-44 52 24 72q128 20 116 -56zM192 760q36 -40 76 -52q196 -24 192 100l-8 32q-80 36 -164 32
q-104 -16 -96 -112zM356 828l36 -4q48 -112 -132 -64q-36 52 28 68h68zM192 568q36 -40 76 -52q196 -24 192 100l-8 32q-80 36 -164 32q-104 -16 -96 -112zM396 628q36 -108 -140 -64q-28 56 32 72q60 4 108 -8zM196 376q28 -20 56 -8q-20 56 24 76l8 -8l16 -24
q28 -20 36 -48q64 -28 124 -24v112q-44 112 -56 -68l-36 20q-36 72 -100 84q-96 -24 -72 -112z" />
    <glyph glyph-name="F" unicode="F" horiz-adv-x="945" 
d="M1008 1365v-137h-495v-455h420v-137h-420v-636h-396v1365h891zM181 968q36 -88 184 -68q112 28 76 132q-88 36 -168 28q-96 -8 -92 -92zM393 964q-64 -44 -140 -16q-44 52 24 72q128 20 116 -56zM181 760q36 -40 76 -52q196 -24 192 100l-8 32q-80 36 -164 32
q-104 -16 -96 -112zM345 828l36 -4q48 -112 -132 -64q-36 52 28 68h68zM181 568q36 -40 76 -52q196 -24 192 100l-8 32q-80 36 -164 32q-104 -16 -96 -112zM385 628q36 -108 -140 -64q-28 56 32 72q60 4 108 -8zM185 376q28 -20 56 -8q-20 56 24 76l8 -8l16 -24
q28 -20 36 -48q64 -28 124 -24v112q-44 112 -56 -68l-36 20q-36 72 -100 84q-96 -24 -72 -112z" />
    <glyph glyph-name="G" unicode="G" horiz-adv-x="1216" 
d="M652 737h562v-737h-126l-43 94q-165 -117 -349 -117q-303 0 -470.5 181.5t-167.5 511.5q0 321 177.5 519.5t464.5 198.5q378 0 460 -386l-186 -85v33l-3 74q-19 241 -223 241q-150 0 -205 -128t-55 -477q0 -326 44.5 -443t169.5 -117q147 0 147 164v336h-197v137z
M295 865h36q108 28 76 128q-68 76 -160 72q-144 -96 48 -200zM315 1013q68 -36 36 -92q-48 -28 -116 36q0 36 16 64q36 0 64 -8zM135 757q24 -92 116 -84q112 0 112 108q-40 84 -140 76q-92 -20 -88 -100zM255 809q24 -8 44 -8q48 -116 -100 -72q-40 40 0 80h56zM135 569
q-4 -48 24 -88q156 -64 204 56q0 112 -108 108q-88 -8 -120 -76zM295 597q36 -40 4 -76q-64 -32 -116 0q-8 60 44 76h68zM387 369l-28 -4q-108 88 -160 8q-8 -92 68 -108q16 32 -28 84q4 12 12 16l32 -4q76 -64 160 -16q-32 88 -96 140q-40 -28 40 -116z" />
    <glyph glyph-name="H" unicode="H" horiz-adv-x="1182" 
d="M513 679v-679h-396v1365h396v-549h323v549h396v-1365h-396v679h-323zM173 980q36 -88 184 -68q112 28 76 132q-88 36 -168 28q-96 -8 -92 -92zM385 976q-64 -44 -140 -16q-44 52 24 72q128 20 116 -56zM173 772q36 -40 76 -52q196 -24 192 100l-8 32q-80 36 -164 32
q-104 -16 -96 -112zM337 840l36 -4q48 -112 -132 -64q-36 52 28 68h68zM173 580q36 -40 76 -52q196 -24 192 100l-8 32q-80 36 -164 32q-104 -16 -96 -112zM377 640q36 -108 -140 -64q-28 56 32 72q60 4 108 -8zM177 388q28 -20 56 -8q-20 56 24 76l8 -8l16 -24
q28 -20 36 -48q64 -28 124 -24v112q-44 112 -56 -68l-36 20q-36 72 -100 84q-96 -24 -72 -112z" />
    <glyph glyph-name="I" unicode="I" horiz-adv-x="471" 
d="M515 1365v-1365h-396v1365h396zM183 963q36 -88 184 -68q112 28 76 132q-88 36 -168 28q-96 -8 -92 -92zM395 959q-64 -44 -140 -16q-44 52 24 72q128 20 116 -56zM183 755q36 -40 76 -52q196 -24 192 100l-8 32q-80 36 -164 32q-104 -16 -96 -112zM347 823l36 -4
q48 -112 -132 -64q-36 52 28 68h68zM183 563q36 -40 76 -52q196 -24 192 100l-8 32q-80 36 -164 32q-104 -16 -96 -112zM387 623q36 -108 -140 -64q-28 56 32 72q60 4 108 -8zM187 371q28 -20 56 -8q-20 56 24 76l8 -8l16 -24q28 -20 36 -48q64 -28 124 -24v112
q-44 112 -56 -68l-36 20q-36 72 -100 84q-96 -24 -72 -112z" />
    <glyph glyph-name="J" unicode="J" horiz-adv-x="810" 
d="M740 1365v-878q0 -517 -364 -517q-161 0 -273 91.5t-112 222.5q0 78 32 197l145 39q-34 -142 -34 -205q0 -222 133 -222q77 0 77 208v1064h396zM410 1097q36 -88 184 -68q112 28 76 132q-88 36 -168 28q-96 -8 -92 -92zM622 1093q-64 -44 -140 -16q-44 52 24 72
q128 20 116 -56zM410 889q36 -40 76 -52q196 -24 192 100l-8 32q-80 36 -164 32q-104 -16 -96 -112zM574 957l36 -4q48 -112 -132 -64q-36 52 28 68h68zM410 697q36 -40 76 -52q196 -24 192 100l-8 32q-80 36 -164 32q-104 -16 -96 -112zM614 757q36 -108 -140 -64
q-28 56 32 72q60 4 108 -8zM414 505q28 -20 56 -8q-20 56 24 76l8 -8l16 -24q28 -20 36 -48q64 -28 124 -24v112q-44 112 -56 -68l-36 20q-36 72 -100 84q-96 -24 -72 -112z" />
    <glyph glyph-name="K" unicode="K" horiz-adv-x="1262" 
d="M1169 1365l-341 -431l503 -934h-441l-320 598l-57 -64v-534h-396v1365h396v-608l470 608h186zM170 934q36 -88 184 -68q112 28 76 132q-88 36 -168 28q-96 -8 -92 -92zM382 930q-64 -44 -140 -16q-44 52 24 72q128 20 116 -56zM170 726q36 -40 76 -52q196 -24 192 100
l-8 32q-80 36 -164 32q-104 -16 -96 -112zM334 794l36 -4q48 -112 -132 -64q-36 52 28 68h68zM170 534q36 -40 76 -52q196 -24 192 100l-8 32q-80 36 -164 32q-104 -16 -96 -112zM374 594q36 -108 -140 -64q-28 56 32 72q60 4 108 -8zM174 342q28 -20 56 -8q-20 56 24 76
l8 -8l16 -24q28 -20 36 -48q64 -28 124 -24v112q-44 112 -56 -68l-36 20q-36 72 -100 84q-96 -24 -72 -112z" />
    <glyph glyph-name="L" unicode="L" horiz-adv-x="1013" 
d="M514 1365v-1228h561v-137h-957v1365h396zM170 973q36 -88 184 -68q112 28 76 132q-88 36 -168 28q-96 -8 -92 -92zM382 969q-64 -44 -140 -16q-44 52 24 72q128 20 116 -56zM170 765q36 -40 76 -52q196 -24 192 100l-8 32q-80 36 -164 32q-104 -16 -96 -112zM334 833
l36 -4q48 -112 -132 -64q-36 52 28 68h68zM170 573q36 -40 76 -52q196 -24 192 100l-8 32q-80 36 -164 32q-104 -16 -96 -112zM374 633q36 -108 -140 -64q-28 56 32 72q60 4 108 -8zM174 381q28 -20 56 -8q-20 56 24 76l8 -8l16 -24q28 -20 36 -48q64 -28 124 -24v112
q-44 112 -56 -68l-36 20q-36 72 -100 84q-96 -24 -72 -112z" />
    <glyph glyph-name="M" unicode="M" horiz-adv-x="1341" 
d="M1386 1365v-1365h-382v950l-266 -950h-221l-273 934v-934h-133v1365h402l234 -824l233 824h406zM1063 911q36 -88 184 -68q112 28 76 132q-88 36 -168 28q-96 -8 -92 -92zM1275 907q-64 -44 -140 -16q-44 52 24 72q128 20 116 -56zM1063 703q36 -40 76 -52
q196 -24 192 100l-8 32q-80 36 -164 32q-104 -16 -96 -112zM1227 771l36 -4q48 -112 -132 -64q-36 52 28 68h68zM1063 511q36 -40 76 -52q196 -24 192 100l-8 32q-80 36 -164 32q-104 -16 -96 -112zM1267 571q36 -108 -140 -64q-28 56 32 72q60 4 108 -8zM1067 319
q28 -20 56 -8q-20 56 24 76l8 -8l16 -24q28 -20 36 -48q64 -28 124 -24v112q-44 112 -56 -68l-36 20q-36 72 -100 84q-96 -24 -72 -112z" />
    <glyph glyph-name="N" unicode="N" horiz-adv-x="1052" 
d="M1116 1365v-1365h-303l-570 864v-864h-133v1365h251l622 -933v933h133zM563 885l-8 -23q-17 -5 -33 -2q-101 50 -186 -21q38 -108 111 -109q9 52 -40 101l22 8q7 -5 16 -3l7 -5q28 -1 46 -16q20 0 43 -8q140 82 11 157q-56 -19 11 -79zM589 803l-97 -68l3 -9
q-28 -44 -28 -88l52 -50q183 25 198 177l-26 37l-55 13q-22 -12 -47 -12zM597 660q-65 -46 -83 35l111 78q87 -60 -28 -113zM580 537q1 -13 5 -17q-18 -58 42 -85q107 10 170 89l22 12l-7 9q17 26 9 51l10 7l-30 42q-31 5 -50 12q-112 -37 -171 -120zM784 566l-10 -6
q-45 -49 -90 -74l-25 -8q-72 58 80 133q30 -14 45 -45zM706 304q51 -58 113 0l11 -9l9 6q33 27 56 39l-3 9l5 7l20 17l19 21q12 91 -75 106q-214 -64 -155 -196zM888 398q-118 -121 -145 -40l-5 17q59 55 111 79q42 -16 39 -56z" />
    <glyph glyph-name="O" unicode="O" horiz-adv-x="1270" 
d="M676 1389q596 0 596 -706t-607 -706t-607 722q0 690 618 690zM665 1280q-112 0 -151.5 -123.5t-39.5 -473.5t39.5 -473.5t151.5 -123.5t151.5 123.5t39.5 473.5q0 349 -39.5 473t-151.5 124zM290 878h36q108 28 76 128q-68 76 -160 72q-144 -96 48 -200zM310 1026
q68 -36 36 -92q-48 -28 -116 36q0 36 16 64q36 0 64 -8zM130 770q24 -92 116 -84q112 0 112 108q-40 84 -140 76q-92 -20 -88 -100zM250 822q24 -8 44 -8q48 -116 -100 -72q-40 40 0 80h56zM130 582q-4 -48 24 -88q156 -64 204 56q0 112 -108 108q-88 -8 -120 -76zM290 610
q36 -40 4 -76q-64 -32 -116 0q-8 60 44 76h68zM382 382l-28 -4q-108 88 -160 8q-8 -92 68 -108q16 32 -28 84q4 12 12 16l32 -4q76 -64 160 -16q-32 88 -96 140q-40 -28 40 -116z" />
    <glyph glyph-name="P" unicode="P" horiz-adv-x="1149" 
d="M118 0v1365h589q501 0 501 -401q0 -405 -557 -405h-137v-559h-396zM514 685h89q216 0 216 286q0 268 -216 268h-89v-554zM170 996q36 -88 184 -68q112 28 76 132q-88 36 -168 28q-96 -8 -92 -92zM382 992q-64 -44 -140 -16q-44 52 24 72q128 20 116 -56zM170 788
q36 -40 76 -52q196 -24 192 100l-8 32q-80 36 -164 32q-104 -16 -96 -112zM334 856l36 -4q48 -112 -132 -64q-36 52 28 68h68zM170 596q36 -40 76 -52q196 -24 192 100l-8 32q-80 36 -164 32q-104 -16 -96 -112zM374 656q36 -108 -140 -64q-28 56 32 72q60 4 108 -8z
M174 404q28 -20 56 -8q-20 56 24 76l8 -8l16 -24q28 -20 36 -48q64 -28 124 -24v112q-44 112 -56 -68l-36 20q-36 72 -100 84q-96 -24 -72 -112z" />
    <glyph glyph-name="Q" unicode="Q" horiz-adv-x="1248" 
d="M1150 44l106 -39q3 -37 3 -54q0 -249 -235 -249q-231 0 -283 275q-38 -3 -73 -3q-611 0 -611 708q0 703 609 703q601 0 601 -719q0 -473 -310 -630q48 -126 117 -126q85 0 79 108q0 9 -3 26zM499 301q70 100 155 100q91 0 155 -121q42 170 42 420q0 333 -39.5 454.5
t-148.5 121.5q-108 0 -149 -124t-41 -452q0 -268 26 -399zM723 104q-22 150 -96 150q-57 0 -102 -73q41 -98 132 -98q31 0 66 21zM290 900h36q108 28 76 128q-68 76 -160 72q-144 -96 48 -200zM310 1048q68 -36 36 -92q-48 -28 -116 36q0 36 16 64q36 0 64 -8zM130 792
q24 -92 116 -84q112 0 112 108q-40 84 -140 76q-92 -20 -88 -100zM250 844q24 -8 44 -8q48 -116 -100 -72q-40 40 0 80h56zM130 604q-4 -48 24 -88q156 -64 204 56q0 112 -108 108q-88 -8 -120 -76zM290 632q36 -40 4 -76q-64 -32 -116 0q-8 60 44 76h68zM382 404l-28 -4
q-108 88 -160 8q-8 -92 68 -108q16 32 -28 84q4 12 12 16l32 -4q76 -64 160 -16q-32 88 -96 140q-40 -28 40 -116z" />
    <glyph glyph-name="R" unicode="R" horiz-adv-x="1188" 
d="M118 0v1365h587q229 0 366 -96.5t137 -258.5q0 -248 -294 -323q151 -56 195.5 -123t60.5 -260q19 -230 77 -304h-430q-41 95 -41 237l-2 81l-2 102q0 236 -190 236h-68v-656h-396zM514 769h80q225 0 225 235t-225 235h-80v-470zM170 968q36 -88 184 -68q112 28 76 132
q-88 36 -168 28q-96 -8 -92 -92zM382 964q-64 -44 -140 -16q-44 52 24 72q128 20 116 -56zM170 760q36 -40 76 -52q196 -24 192 100l-8 32q-80 36 -164 32q-104 -16 -96 -112zM334 828l36 -4q48 -112 -132 -64q-36 52 28 68h68zM170 568q36 -40 76 -52q196 -24 192 100
l-8 32q-80 36 -164 32q-104 -16 -96 -112zM374 628q36 -108 -140 -64q-28 56 32 72q60 4 108 -8zM174 376q28 -20 56 -8q-20 56 24 76l8 -8l16 -24q28 -20 36 -48q64 -28 124 -24v112q-44 112 -56 -68l-36 20q-36 72 -100 84q-96 -24 -72 -112z" />
    <glyph glyph-name="S" unicode="S" horiz-adv-x="1078" 
d="M1010 983l-184 -34q12 55 12 92q0 238 -289 238q-228 0 -228 -164q0 -123 255 -211q492 -169 492 -500q0 -194 -138 -311.5t-367 -117.5q-507 0 -507 393q0 32 5 79l191 42q-22 -87 -22 -151q0 -254 291 -254q233 0 233 183q0 136 -279 239q-403 148 -403 473
q0 184 134.5 296.5t353.5 112.5q450 0 450 -405zM428 835q14 -10 21 -25l-23 -28q-102 -26 -101 -123q67 -9 86 -2q43 -13 81 -2l-6 36l-32 -2l-9 7l-11 -6q-25 3 -41 1q-13 5 -21 4q43 52 102 63q66 133 -104 111q-25 -69 58 -34zM594 815q-79 -58 -97 -139q11 -63 66 -77
q85 -42 137 97q13 116 -102 120zM662 730l-8 -26q-24 -45 -44 -69q-121 16 -8 137q42 -9 60 -42zM679 587q-22 -86 60 -112q76 -15 104 55l13 -2l12 23l18 60q-28 88 -111 78q-75 -34 -96 -102zM843 599q-29 -42 -47 -53l-23 -32q-116 36 9 131q47 -8 61 -46zM881 500
q-51 -13 -76 -54q-22 -126 91 -122q135 16 130 137q-51 84 -142 48zM893 364q-106 47 32 115q124 -55 -32 -115z" />
    <glyph glyph-name="T" unicode="T" horiz-adv-x="1098" 
d="M1076 1365v-137h-335v-1228h-420v1228h-337v137h1092zM386 960q36 -88 184 -68q112 28 76 132q-88 36 -168 28q-96 -8 -92 -92zM598 956q-64 -44 -140 -16q-44 52 24 72q128 20 116 -56zM386 752q36 -40 76 -52q196 -24 192 100l-8 32q-80 36 -164 32q-104 -16 -96 -112z
M550 820l36 -4q48 -112 -132 -64q-36 52 28 68h68zM386 560q36 -40 76 -52q196 -24 192 100l-8 32q-80 36 -164 32q-104 -16 -96 -112zM590 620q36 -108 -140 -64q-28 56 32 72q60 4 108 -8zM390 368q28 -20 56 -8q-20 56 24 76l8 -8l16 -24q28 -20 36 -48q64 -28 124 -24
v112q-44 112 -56 -68l-36 20q-36 72 -100 84q-96 -24 -72 -112z" />
    <glyph glyph-name="U" unicode="U" horiz-adv-x="1098" 
d="M1144 1365v-916q0 -471 -521 -471q-519 0 -519 471v916h396v-928q0 -180 51.5 -246t190.5 -66q269 0 269 324v916h133zM167 1022q36 -88 184 -68q112 28 76 132q-88 36 -168 28q-96 -8 -92 -92zM379 1018q-64 -44 -140 -16q-44 52 24 72q128 20 116 -56zM167 814
q36 -40 76 -52q196 -24 192 100l-8 32q-80 36 -164 32q-104 -16 -96 -112zM331 882l36 -4q48 -112 -132 -64q-36 52 28 68h68zM167 622q36 -40 76 -52q196 -24 192 100l-8 32q-80 36 -164 32q-104 -16 -96 -112zM371 682q36 -108 -140 -64q-28 56 32 72q60 4 108 -8z
M171 430q28 -20 56 -8q-20 56 24 76l8 -8l16 -24q28 -20 36 -48q64 -28 124 -24v112q-44 112 -56 -68l-36 20q-36 72 -100 84q-96 -24 -72 -112z" />
    <glyph glyph-name="V" unicode="V" horiz-adv-x="1148" 
d="M1102 1365l-396 -1365h-355l-362 1365h400l270 -1034l295 1034h148zM364 981l-14 -20q-18 0 -33 7q-81 78 -183 36q4 -114 73 -136q24 46 -8 107l24 2q5 -8 14 -8l5 -7q27 -9 39 -29q20 -6 39 -20q158 36 57 146q-59 -1 -13 -78zM365 895l-113 -37v-9q-40 -33 -53 -76
l35 -63q183 -31 241 110l-14 43l-48 29q-25 -5 -48 3zM330 755q-76 -24 -70 58l130 42q65 -83 -60 -100zM277 643q-2 -12 0 -18q-35 -49 15 -93q105 -22 188 34l25 5l-4 11q24 19 24 46l11 4l-16 48q-28 15 -44 28q-118 -3 -199 -65zM480 611l-10 -4q-58 -33 -108 -43h-27
q-51 76 115 103q25 -22 30 -56zM328 383q31 -70 109 -33l7 -12l10 3q40 16 65 21v9l7 5l24 11l25 14q38 83 -40 123q-224 3 -207 -141zM530 419q-149 -81 -150 5v18q72 35 129 42q36 -28 21 -65z" />
    <glyph glyph-name="W" unicode="W" horiz-adv-x="1641" 
d="M1612 1365l-372 -1365h-258l-190 745l-193 -745h-258l-352 1365h398l207 -828l207 828h233l204 -831l218 831h156zM986 986l-14 -20q-18 0 -33 7q-81 78 -183 36q4 -114 73 -136q24 46 -8 107l24 2q5 -8 14 -8l5 -7q27 -9 39 -29q20 -6 39 -20q158 36 57 146
q-59 -1 -13 -78zM987 900l-113 -37v-9q-40 -33 -53 -76l35 -63q183 -31 241 110l-14 43l-48 29q-25 -5 -48 3zM952 760q-76 -24 -70 58l130 42q65 -83 -60 -100zM899 648q-2 -12 0 -18q-35 -49 15 -93q105 -22 188 34l25 5l-4 11q24 19 24 46l11 4l-16 48q-28 15 -44 28
q-118 -3 -199 -65zM1102 616l-10 -4q-58 -33 -108 -43h-27q-51 76 115 103q25 -22 30 -56zM950 388q31 -70 109 -33l7 -12l10 3q40 16 65 21v9l7 5l24 11l25 14q38 83 -40 123q-224 3 -207 -141zM1152 424q-149 -81 -150 5v18q72 35 129 42q36 -28 21 -65z" />
    <glyph glyph-name="X" unicode="X" horiz-adv-x="1188" 
d="M1108 1365l-358 -584l435 -781h-440l-262 480l-291 -480h-178l385 624l-412 741h439l244 -445l264 445h174zM558 915l-10 -22q-18 -3 -33 1q-95 60 -187 -1q26 -111 99 -119q14 50 -29 103l22 6q7 -6 16 -4l6 -6q28 -4 44 -21q21 -1 43 -12q147 66 27 155q-58 -13 2 -80z
M576 831l-104 -58l2 -9q-32 -40 -37 -85l47 -55q185 6 215 155l-22 40l-53 19q-24 -10 -48 -7zM569 687q-70 -38 -80 44l119 66q80 -69 -39 -110zM539 567q0 -13 3 -17q-24 -56 33 -89q108 -1 178 70l23 10l-5 10q19 24 14 50l10 6l-25 44q-31 9 -49 18q-115 -25 -182 -102z
M745 575l-10 -5q-50 -44 -97 -64l-27 -5q-65 64 93 123q29 -16 41 -49zM639 322q45 -62 114 -11l9 -11l10 5q36 24 59 33l-1 9l6 7l20 15l22 18q22 90 -63 114q-220 -41 -176 -179zM831 397q-130 -109 -148 -25l-4 18q64 48 119 66q40 -20 33 -59z" />
    <glyph glyph-name="Y" unicode="Y" horiz-adv-x="1098" 
d="M1072 1365l-333 -861v-504h-396v504l-368 861h411l278 -658l250 658h158zM344 1217l-12 -21q-18 -2 -33 3q-90 69 -187 15q17 -113 89 -127q18 49 -20 106l23 4q6 -7 15 -6l6 -6q27 -7 42 -25q20 -3 41 -15q153 53 40 151q-58 -8 -4 -79zM354 1131l-108 -48l1 -9
q-36 -38 -44 -82l42 -59q184 -10 227 137l-19 41l-50 23q-25 -7 -49 -3zM335 989q-73 -32 -76 50l124 56q74 -75 -48 -106zM294 872q0 -13 2 -18q-28 -53 26 -91q107 -11 183 55l24 8l-4 10q21 22 18 48l10 5l-20 47q-30 11 -48 22q-117 -16 -191 -86zM500 862l-10 -5
q-53 -39 -102 -55l-27 -3q-59 70 104 115q27 -19 35 -52zM374 619q39 -66 112 -21l8 -12l11 5q37 20 62 28l-1 9l6 6l22 13l24 17q29 87 -54 118q-222 -22 -190 -163zM571 677q-139 -97 -149 -12l-2 18q67 43 124 56q38 -23 27 -62z" />
    <glyph glyph-name="Z" unicode="Z" horiz-adv-x="1109" 
d="M1104 1365v-124l-656 -1104h607v-137h-1045v137l648 1091h-555v137h1001zM779 894l-24 -2q-11 14 -15 30q8 112 -90 164q-85 -77 -58 -145q51 12 78 75l16 -17q-2 -8 3 -15l-2 -9q10 -26 3 -48q8 -19 10 -43q128 -98 148 50q-38 44 -69 -40zM714 838l-100 63l-7 -5
q-51 8 -93 -9l-25 -67q93 -160 239 -115l24 39l-9 55q-20 16 -29 39zM585 776q-67 42 0 90l115 -73q-22 -103 -115 -17zM465 745q-11 -7 -14 -12q-61 -5 -62 -71q50 -95 146 -123l20 -16l7 10q29 -6 50 11l10 -6l27 43q-7 31 -8 52q-77 89 -176 112zM570 567l-9 6
q-63 23 -103 55l-17 21q25 88 153 -23q-1 -33 -24 -59zM298 539q-34 -69 44 -105l-5 -14l9 -6q38 -20 58 -36l7 6l8 -2l23 -12l27 -10q89 24 70 110q-142 173 -241 69zM455 406q-158 63 -93 119l14 11q73 -33 115 -73q2 -44 -36 -57z" />
    <glyph glyph-name="bracketleft" unicode="[" 
 />
    <glyph glyph-name="backslash" unicode="\" 
 />
    <glyph glyph-name="bracketright" unicode="]" 
 />
    <glyph glyph-name="asciicircum" unicode="^" 
 />
    <glyph glyph-name="underscore" unicode="_" 
 />
    <glyph glyph-name="grave" unicode="`" 
 />
    <glyph glyph-name="a" unicode="a" horiz-adv-x="1097" 
d="M1118 36q-134 -52 -261 -52q-188 0 -232 117q-91 -122 -262 -122q-319 0 -319 296q0 225 292 316q268 84 268 202q0 155 -154 155q-178 0 -178 -150q0 -47 28 -124l-181 35q-7 47 -7 88q0 240 438 240q416 0 416 -224v-612q0 -94 61 -94q19 0 56 21zM411 554
q32 -8 28 -36q-60 -24 -48 -84q-40 -8 -52 -40l-32 -8l-4 -24q-48 -44 -32 -112q24 -40 60 -56h108q4 8 12 8h28q72 -12 120 -8q56 48 48 112q8 80 -60 116q12 68 -40 96q0 28 24 28v24q-48 4 -48 -44h-44q-16 16 -12 36q-32 8 -56 8v-16zM459 258q-60 -80 -164 -4l-4 44
q28 -40 64 -12q-4 40 -48 32q48 80 120 92q76 -52 32 -152zM623 338q12 -52 -4 -96q-140 -116 -128 124q12 24 28 40q76 0 104 -68zM395 342q20 16 20 36q-20 8 -36 4q-24 -36 16 -40zM555 338q16 48 -36 44q-12 -52 36 -44zM567 294q72 -28 48 32q-12 12 -28 8
q-24 -16 -20 -40zM519 258q24 -12 44 -8q24 48 -32 44q-12 -16 -12 -36zM379 242l44 -4q12 48 -36 44q-16 -20 -8 -40z" />
    <glyph glyph-name="b" unicode="b" horiz-adv-x="990" 
d="M98 0v1365q89 0 365 21v-485q102 133 227 133q358 0 358 -496q0 -560 -426 -560q-201 0 -343 189l-90 -167h-91zM601 688q32 -8 28 -36q-60 -24 -48 -84q-40 -8 -52 -40l-32 -8l-4 -24q-48 -44 -32 -112q24 -40 60 -56h108q4 8 12 8h28q72 -12 120 -8q56 48 48 112
q8 80 -60 116q12 68 -40 96q0 28 24 28v24q-48 4 -48 -44h-44q-16 16 -12 36q-32 8 -56 8v-16zM649 392q-60 -80 -164 -4l-4 44q28 -40 64 -12q-4 40 -48 32q48 80 120 92q76 -52 32 -152zM813 472q12 -52 -4 -96q-140 -116 -128 124q12 24 28 40q76 0 104 -68zM585 476
q20 16 20 36q-20 8 -36 4q-24 -36 16 -40zM745 472q16 48 -36 44q-12 -52 36 -44zM757 428q72 -28 48 32q-12 12 -28 8q-24 -16 -20 -40zM709 392q24 -12 44 -8q24 48 -32 44q-12 -16 -12 -36zM569 376l44 -4q12 48 -36 44q-16 -20 -8 -40z" />
    <glyph glyph-name="c" unicode="c" horiz-adv-x="954" 
d="M817 450l154 -47l1 -41q0 -384 -420 -384q-498 0 -498 505q0 253 145 403.5t389 150.5q351 0 351 -318l-171 -83l2 96q0 216 -145 216q-192 0 -192 -424q0 -262 41 -359.5t152 -97.5q203 0 203 263q0 37 -12 120zM537 489l-40 -40q-36 32 -68 0v-16q32 12 56 -16l-12 -28
q0 -44 36 -64q-24 -32 -8 -60q-24 -28 0 -52q-8 -24 4 -40l-8 -12q104 -120 216 24l-4 12l44 44q104 36 64 144q-68 100 -160 72q-40 64 -92 36l-24 24q24 24 -8 36q-32 -36 4 -64zM793 381q32 -64 -20 -104q-44 -44 -144 76q-20 56 32 80q84 4 132 -52zM777 389
q-24 16 -44 24q-56 -112 44 -24zM657 353q36 4 36 36q-16 16 -36 16q-32 -28 0 -52zM685 245q-4 -28 0 -52q-40 -44 -92 -52l-20 -12q-20 12 -28 24q28 12 44 36q-36 48 -56 -12q-4 20 -4 32l-4 20l-4 64q24 28 36 52q92 -8 128 -100zM705 317q40 -48 56 20q-16 12 -36 12
q-16 -16 -20 -32zM581 269q-4 24 -12 36h-12q-48 -76 24 -36zM645 241q-44 -20 -16 -52q24 0 40 20q-4 20 -20 32h-4z" />
    <glyph glyph-name="d" unicode="d" horiz-adv-x="983" 
d="M1005 1386v-1386h-365v87q-92 -110 -246 -110q-340 0 -340 522q0 537 360 537q142 0 226 -125v454q165 0 365 21zM388 689q32 -8 28 -36q-60 -24 -48 -84q-40 -8 -52 -40l-32 -8l-4 -24q-48 -44 -32 -112q24 -40 60 -56h108q4 8 12 8h28q72 -12 120 -8q56 48 48 112
q8 80 -60 116q12 68 -40 96q0 28 24 28v24q-48 4 -48 -44h-44q-16 16 -12 36q-32 8 -56 8v-16zM436 393q-60 -80 -164 -4l-4 44q28 -40 64 -12q-4 40 -48 32q48 80 120 92q76 -52 32 -152zM600 473q12 -52 -4 -96q-140 -116 -128 124q12 24 28 40q76 0 104 -68zM372 477
q20 16 20 36q-20 8 -36 4q-24 -36 16 -40zM532 473q16 48 -36 44q-12 -52 36 -44zM544 429q72 -28 48 32q-12 12 -28 8q-24 -16 -20 -40zM496 393q24 -12 44 -8q24 48 -32 44q-12 -16 -12 -36zM356 377l44 -4q12 48 -36 44q-16 -20 -8 -40z" />
    <glyph glyph-name="e" unicode="e" horiz-adv-x="936" 
d="M823 369l147 -43q-23 -349 -412 -349q-504 0 -504 503q0 244 134 400t343 156q437 0 437 -564h-532q0 -396 201 -396q188 0 188 224q0 30 -2 69zM365 884v-92q8 -32 8 -56q-16 -76 0 -136q140 -88 220 28q68 -12 96 40q28 0 28 -24h24q4 48 -40 44l-4 12v44q52 4 44 56
l-12 4q-12 -28 -40 -28q-24 60 -84 48q-8 40 -40 52l-8 32l-24 4q-44 48 -112 32q-40 -24 -56 -60zM469 924q-68 -72 20 -56v40q140 -88 60 -160q-104 -20 -164 52q8 72 44 124h40zM513 812q40 -24 40 20q-8 12 -24 16q-20 -16 -16 -36zM409 792q36 -12 44 20q-4 28 -28 28
q-24 -20 -16 -48zM577 696v-44q-92 -120 -188 -28q-32 84 56 100q76 12 132 -28zM505 664q48 -24 48 32l-36 4q-12 -16 -12 -36zM421 652q40 -20 44 24q-12 24 -36 20q-12 -24 -8 -44zM493 600h12q4 48 -40 48q-28 -68 28 -48z" />
    <glyph glyph-name="f" unicode="f" horiz-adv-x="729" 
d="M628 1008v-113h-144v-895h-365v895h-128v113h128v90q0 124 87.5 206t219.5 82q264 0 264 -198q0 -15 -1 -38l-173 -61q14 52 14 82q0 106 -74 106q-64 0 -64 -93q0 -57 92 -176h144zM489 836v-92q8 -32 8 -56q-16 -76 0 -136q140 -88 220 28q68 -12 96 40q28 0 28 -24h24
q4 48 -40 44l-4 12v44q52 4 44 56l-12 4q-12 -28 -40 -28q-24 60 -84 48q-8 40 -40 52l-8 32l-24 4q-44 48 -112 32q-40 -24 -56 -60zM593 876q-68 -72 20 -56v40q140 -88 60 -160q-104 -20 -164 52q8 72 44 124h40zM637 764q40 -24 40 20q-8 12 -24 16q-20 -16 -16 -36z
M533 744q36 -12 44 20q-4 28 -28 28q-24 -20 -16 -48zM701 648v-44q-92 -120 -188 -28q-32 84 56 100q76 12 132 -28zM629 616q48 -24 48 32l-36 4q-12 -16 -12 -36zM545 604q40 -20 44 24q-12 24 -36 20q-12 -24 -8 -44zM617 552h12q4 48 -40 48q-28 -68 28 -48z" />
    <glyph glyph-name="g" unicode="g" horiz-adv-x="1122" 
d="M758 998q255 -109 255 -317q0 -137 -128 -234t-309 -97q-70 0 -189 18q-69 -40 -69 -80q0 -55 85 -55q22 0 89 4q169 11 246 11q364 0 364 -276q0 -334 -603 -334q-449 0 -449 189q0 109 182 148q-194 51 -194 169q0 147 231 259q-203 82 -203 279q0 150 123 251.5
t305 101.5q62 0 163 -13q-5 35 -5 55q0 198 207 198q165 0 165 -139q0 -106 -99 -106q-33 0 -78 22q-28 14 -42 15q-47 3 -47 -69zM485 884q32 -8 28 -36q-60 -24 -48 -84q-40 -8 -52 -40l-32 -8l-4 -24q-48 -44 -32 -112q24 -40 60 -56h108q4 8 12 8h28q72 -12 120 -8
q56 48 48 112q8 80 -60 116q12 68 -40 96q0 28 24 28v24q-48 4 -48 -44h-44q-16 16 -12 36q-32 8 -56 8v-16zM533 588q-60 -80 -164 -4l-4 44q28 -40 64 -12q-4 40 -48 32q48 80 120 92q76 -52 32 -152zM697 668q12 -52 -4 -96q-140 -116 -128 124q12 24 28 40q76 0 104 -68
zM469 672q20 16 20 36q-20 8 -36 4q-24 -36 16 -40zM629 668q16 48 -36 44q-12 -52 36 -44zM641 624q72 -28 48 32q-12 12 -28 8q-24 -16 -20 -40zM593 588q24 -12 44 -8q24 48 -32 44q-12 -16 -12 -36zM453 572l44 -4q12 48 -36 44q-16 -20 -8 -40zM427 76v-92q8 -32 8 -56
q-16 -76 0 -136q140 -88 220 28q68 -12 96 40q28 0 28 -24h24q4 48 -40 44l-4 12v44q52 4 44 56l-12 4q-12 -28 -40 -28q-24 60 -84 48q-8 40 -40 52l-8 32l-24 4q-44 48 -112 32q-40 -24 -56 -60zM531 116q-68 -72 20 -56v40q140 -88 60 -160q-104 -20 -164 52q8 72 44 124
h40zM575 4q40 -24 40 20q-8 12 -24 16q-20 -16 -16 -36zM471 -16q36 -12 44 20q-4 28 -28 28q-24 -20 -16 -48zM639 -112v-44q-92 -120 -188 -28q-32 84 56 100q76 12 132 -28zM567 -144q48 -24 48 32l-36 4q-12 -16 -12 -36zM483 -156q40 -20 44 24q-12 24 -36 20
q-12 -24 -8 -44zM555 -208h12q4 48 -40 48q-28 -68 28 -48z" />
    <glyph glyph-name="h" unicode="h" horiz-adv-x="1005" 
d="M98 0v1365q162 0 365 21v-551q118 199 333 199q254 0 254 -228v-806h-365v766q0 87 -58 87q-60 0 -112 -111.5t-52 -239.5v-502h-365zM573 1389l-40 -40q-36 32 -68 0v-16q32 12 56 -16l-12 -28q0 -44 36 -64q-24 -32 -8 -60q-24 -28 0 -52q-8 -24 4 -40l-8 -12
q104 -120 216 24l-4 12l44 44q104 36 64 144l-8 8q-36 44 -68 68q-48 8 -84 -4q-32 36 -64 48l-28 -12l-24 24q24 24 -8 36q-32 -36 4 -64zM829 1281q32 -64 -20 -104q-44 -44 -144 76q-20 56 32 80q84 4 132 -52zM813 1289q-24 16 -44 24q-56 -112 44 -24zM693 1253
q36 4 36 36q-16 16 -36 16q-32 -28 0 -52zM721 1145q-4 -28 0 -52q-40 -44 -92 -52l-20 -12q-20 12 -28 24q28 12 44 36q-36 48 -56 -12q-4 20 -4 32l-4 20l-4 64q24 28 36 52q92 -8 128 -100zM741 1217q40 -48 56 20q-16 12 -36 12q-16 -16 -20 -32zM617 1169q-4 24 -12 36
h-12q-48 -76 24 -36zM681 1141q-44 -20 -16 -52q24 0 40 20q-4 20 -20 32h-4z" />
    <glyph glyph-name="i" unicode="i" horiz-adv-x="420" 
d="M105 0v1007q171 0 365 27v-1034h-365zM244 1475q32 -8 28 -36q-60 -24 -48 -84q-40 -8 -52 -40l-32 -8l-4 -24q-48 -44 -32 -112q24 -40 60 -56h108q4 8 12 8h28q72 -12 120 -8q56 48 48 112q8 80 -60 116q12 68 -40 96q0 28 24 28v24q-48 4 -48 -44h-44q-16 16 -12 36
q-32 8 -56 8v-16zM292 1179q-60 -80 -164 -4l-4 44q28 -40 64 -12q-4 40 -48 32q48 80 120 92q76 -52 32 -152zM456 1259q12 -52 -4 -96q-140 -116 -128 124q12 24 28 40q76 0 104 -68zM228 1263q20 16 20 36q-20 8 -36 4q-24 -36 16 -40zM388 1259q16 48 -36 44
q-12 -52 36 -44zM400 1215q72 -28 48 32q-12 12 -28 8q-24 -16 -20 -40zM352 1179q24 -12 44 -8q24 48 -32 44q-12 -16 -12 -36zM212 1163l44 -4q12 48 -36 44q-16 -20 -8 -40z" />
    <glyph glyph-name="j" unicode="j" horiz-adv-x="478" 
d="M-58 -194l128 89l-1 -31q0 -122 59 -122q61 0 61 89q0 49 -73 169v1007q139 0 365 27v-1022l8 -139l-61 -173q-69 -67 -212 -67q-214 0 -274 173zM236 1456q32 -8 28 -36q-60 -24 -48 -84q-40 -8 -52 -40l-32 -8l-4 -24q-48 -44 -32 -112q24 -40 60 -56h108q4 8 12 8h28
q72 -12 120 -8q56 48 48 112q8 80 -60 116q12 68 -40 96q0 28 24 28v24q-48 4 -48 -44h-44q-16 16 -12 36q-32 8 -56 8v-16zM284 1160q-60 -80 -164 -4l-4 44q28 -40 64 -12q-4 40 -48 32q48 80 120 92q76 -52 32 -152zM448 1240q12 -52 -4 -96q-140 -116 -128 124
q12 24 28 40q76 0 104 -68zM220 1244q20 16 20 36q-20 8 -36 4q-24 -36 16 -40zM380 1240q16 48 -36 44q-12 -52 36 -44zM392 1196q72 -28 48 32q-12 12 -28 8q-24 -16 -20 -40zM344 1160q24 -12 44 -8q24 48 -32 44q-12 -16 -12 -36zM204 1144l44 -4q12 48 -36 44
q-16 -20 -8 -40z" />
    <glyph glyph-name="k" unicode="k" horiz-adv-x="1026" 
d="M998 1008l-208 -261l300 -747h-385l-175 444l-67 -82v-362h-365v1365q161 0 365 22v-854l389 475h146zM605 1311q32 -8 28 -36q-60 -24 -48 -84q-40 -8 -52 -40l-32 -8l-4 -24q-48 -44 -32 -112q24 -40 60 -56h108q4 8 12 8h28q72 -12 120 -8q56 48 48 112q8 80 -60 116
q12 68 -40 96q0 28 24 28v24q-48 4 -48 -44h-44q-16 16 -12 36q-32 8 -56 8v-16zM653 1015q-60 -80 -164 -4l-4 44q28 -40 64 -12q-4 40 -48 32q48 80 120 92q76 -52 32 -152zM817 1095q12 -52 -4 -96q-140 -116 -128 124q12 24 28 40q76 0 104 -68zM589 1099q20 16 20 36
q-20 8 -36 4q-24 -36 16 -40zM749 1095q16 48 -36 44q-12 -52 36 -44zM761 1051q72 -28 48 32q-12 12 -28 8q-24 -16 -20 -40zM713 1015q24 -12 44 -8q24 48 -32 44q-12 -16 -12 -36zM573 999l44 -4q12 48 -36 44q-16 -20 -8 -40z" />
    <glyph glyph-name="l" unicode="l" horiz-adv-x="437" 
d="M463 1385v-1385h-365v1365q151 0 365 20zM233 972q32 -8 28 -36q-60 -24 -48 -84q-40 -8 -52 -40l-32 -8l-4 -24q-48 -44 -32 -112q24 -40 60 -56h108q4 8 12 8h28q72 -12 120 -8q56 48 48 112q8 80 -60 116q12 68 -40 96q0 28 24 28v24q-48 4 -48 -44h-44q-16 16 -12 36
q-32 8 -56 8v-16zM281 676q-60 -80 -164 -4l-4 44q28 -40 64 -12q-4 40 -48 32q48 80 120 92q76 -52 32 -152zM445 756q12 -52 -4 -96q-140 -116 -128 124q12 24 28 40q76 0 104 -68zM217 760q20 16 20 36q-20 8 -36 4q-24 -36 16 -40zM377 756q16 48 -36 44q-12 -52 36 -44
zM389 712q72 -28 48 32q-12 12 -28 8q-24 -16 -20 -40zM341 676q24 -12 44 -8q24 48 -32 44q-12 -16 -12 -36zM201 660l44 -4q12 48 -36 44q-16 -20 -8 -40z" />
    <glyph glyph-name="m" unicode="m" horiz-adv-x="1534" 
d="M1578 0h-365v757q0 99 -58 99q-134 0 -134 -285v-571h-365v741q0 113 -52 113q-136 0 -136 -284v-570h-365v1011q185 0 365 25v-174q129 173 318 173q158 0 235 -163q122 165 305 165q252 0 252 -255v-782zM970 1326l-40 -40q-36 32 -68 0v-16q32 12 56 -16l-12 -28
q0 -44 36 -64q-24 -32 -8 -60q-24 -28 0 -52q-8 -24 4 -40l-8 -12q104 -120 216 24l-4 12l44 44q104 36 64 144q-68 100 -160 72q-40 64 -92 36l-24 24q24 24 -8 36q-32 -36 4 -64zM1226 1218q32 -64 -20 -104q-44 -44 -144 76q-20 56 32 80q84 4 132 -52zM1210 1226
q-24 16 -44 24q-56 -112 44 -24zM1090 1190q36 4 36 36q-16 16 -36 16q-32 -28 0 -52zM1118 1082q-4 -28 0 -52q-40 -44 -92 -52l-20 -12q-20 12 -28 24q28 12 44 36q-36 48 -56 -12q-4 20 -4 32l-4 20l-4 64q24 28 36 52q92 -8 128 -100zM1138 1154q40 -48 56 20
q-16 12 -36 12q-16 -16 -20 -32zM1014 1106q-4 24 -12 36h-12q-48 -76 24 -36zM1078 1078q-44 -20 -16 -52q24 0 40 20q-4 20 -20 32h-4z" />
    <glyph glyph-name="n" unicode="n" horiz-adv-x="984" 
d="M1054 0h-365v740q0 113 -63 113q-64 0 -111 -89.5t-47 -211.5v-552h-365v1010q188 0 365 25v-189q136 188 332 188q254 0 254 -258v-776zM469 1388q32 -8 28 -36q-60 -24 -48 -84q-40 -8 -52 -40l-32 -8l-4 -24q-48 -44 -32 -112q24 -40 60 -56h108q4 8 12 8h28
q72 -12 120 -8q56 48 48 112q8 80 -60 116q12 68 -40 96q0 28 24 28v24q-48 4 -48 -44h-44q-16 16 -12 36q-32 8 -56 8v-16zM517 1092q-60 -80 -164 -4l-4 44q28 -40 64 -12q-4 40 -48 32q48 80 120 92q76 -52 32 -152zM681 1172q12 -52 -4 -96q-140 -116 -128 124
q12 24 28 40q76 0 104 -68zM453 1176q20 16 20 36q-20 8 -36 4q-24 -36 16 -40zM613 1172q16 48 -36 44q-12 -52 36 -44zM625 1128q72 -28 48 32q-12 12 -28 8q-24 -16 -20 -40zM577 1092q24 -12 44 -8q24 48 -32 44q-12 -16 -12 -36zM437 1076l44 -4q12 48 -36 44
q-16 -20 -8 -40z" />
    <glyph glyph-name="o" unicode="o" horiz-adv-x="1025" 
d="M555 1034q500 0 500 -528t-500 -528q-501 0 -501 528t501 528zM470 693q32 -8 28 -36q-60 -24 -48 -84q-40 -8 -52 -40l-32 -8l-4 -24q-48 -44 -32 -112q24 -40 60 -56h108q4 8 12 8h28q72 -12 120 -8q56 48 48 112q8 80 -60 116q12 68 -40 96q0 28 24 28v24
q-48 4 -48 -44h-44q-16 16 -12 36q-32 8 -56 8v-16zM518 397q-60 -80 -164 -4l-4 44q28 -40 64 -12q-4 40 -48 32q48 80 120 92q76 -52 32 -152zM682 477q12 -52 -4 -96q-140 -116 -128 124q12 24 28 40q76 0 104 -68zM454 481q20 16 20 36q-20 8 -36 4q-24 -36 16 -40z
M614 477q16 48 -36 44q-12 -52 36 -44zM626 433q72 -28 48 32q-12 12 -28 8q-24 -16 -20 -40zM578 397q24 -12 44 -8q24 48 -32 44q-12 -16 -12 -36zM438 381l44 -4q12 48 -36 44q-16 -20 -8 -40z" />
    <glyph glyph-name="p" unicode="p" horiz-adv-x="1007" 
d="M98 -341v1348q155 0 365 26v-152q103 153 250 153q157 0 251 -143.5t94 -384.5q0 -533 -355 -533q-146 0 -240 110v-424h-365zM638 685q32 -8 28 -36q-60 -24 -48 -84q-40 -8 -52 -40l-32 -8l-4 -24q-48 -44 -32 -112q24 -40 60 -56h108q4 8 12 8h28q72 -12 120 -8
q56 48 48 112q8 80 -60 116q12 68 -40 96q0 28 24 28v24q-48 4 -48 -44h-44q-16 16 -12 36q-32 8 -56 8v-16zM686 389q-60 -80 -164 -4l-4 44q28 -40 64 -12q-4 40 -48 32q48 80 120 92q76 -52 32 -152zM850 469q12 -52 -4 -96q-140 -116 -128 124q12 24 28 40q76 0 104 -68
zM622 473q20 16 20 36q-20 8 -36 4q-24 -36 16 -40zM782 469q16 48 -36 44q-12 -52 36 -44zM794 425q72 -28 48 32q-12 12 -28 8q-24 -16 -20 -40zM746 389q24 -12 44 -8q24 48 -32 44q-12 -16 -12 -36zM606 373l44 -4q12 48 -36 44q-16 -20 -8 -40z" />
    <glyph glyph-name="q" unicode="q" horiz-adv-x="1000" 
d="M1014 1008v-1349h-365v449q-107 -131 -237 -131q-358 0 -358 499q0 559 418 559q195 0 366 -195l87 168h89zM400 701q32 -8 28 -36q-60 -24 -48 -84q-40 -8 -52 -40l-32 -8l-4 -24q-48 -44 -32 -112q24 -40 60 -56h108q4 8 12 8h28q72 -12 120 -8q56 48 48 112
q8 80 -60 116q12 68 -40 96q0 28 24 28v24q-48 4 -48 -44h-44q-16 16 -12 36q-32 8 -56 8v-16zM448 405q-60 -80 -164 -4l-4 44q28 -40 64 -12q-4 40 -48 32q48 80 120 92q76 -52 32 -152zM612 485q12 -52 -4 -96q-140 -116 -128 124q12 24 28 40q76 0 104 -68zM384 489
q20 16 20 36q-20 8 -36 4q-24 -36 16 -40zM544 485q16 48 -36 44q-12 -52 36 -44zM556 441q72 -28 48 32q-12 12 -28 8q-24 -16 -20 -40zM508 405q24 -12 44 -8q24 48 -32 44q-12 -16 -12 -36zM368 389l44 -4q12 48 -36 44q-16 -20 -8 -40z" />
    <glyph glyph-name="r" unicode="r" horiz-adv-x="785" 
d="M826 642h-250q13 59 23 87q14 41 14 74q0 64 -46 64q-35 0 -67 -84.5t-32 -178.5v-604h-365v1008l71 -1q126 0 294 27v-166q89 166 218 166q176 0 176 -194q0 -51 -17 -117q-6 -27 -19 -81zM570 615l-40 -40q-36 32 -68 0v-16q32 12 56 -16l-12 -28q0 -44 36 -64
q-24 -32 -8 -60q-24 -28 0 -52q-8 -24 4 -40l-8 -12q104 -120 216 24l-4 12l44 44q104 36 64 144q-68 100 -160 72q-40 64 -92 36l-24 24q24 24 -8 36q-32 -36 4 -64zM826 507q32 -64 -20 -104q-44 -44 -144 76q-20 56 32 80q84 4 132 -52zM810 515q-24 16 -44 24
q-56 -112 44 -24zM690 479q36 4 36 36q-16 16 -36 16q-32 -28 0 -52zM718 371q-4 -28 0 -52q-40 -44 -92 -52l-20 -12q-20 12 -28 24q28 12 44 36q-36 48 -56 -12q-4 20 -4 32l-4 20l-4 64q24 28 36 52q92 -8 128 -100zM738 443q40 -48 56 20q-16 12 -36 12q-16 -16 -20 -32
zM614 395q-4 24 -12 36h-12q-48 -76 24 -36zM678 367q-44 -20 -16 -52q24 0 40 20q-4 20 -20 32h-4z" />
    <glyph glyph-name="s" unicode="s" horiz-adv-x="900" 
d="M888 749l-177 -31q0 226 -210 226q-129 0 -129 -106q0 -78 222 -168q340 -139 340 -353q0 -341 -433 -341q-458 0 -458 341l188 38q-4 -33 -4 -62q0 -88 73.5 -153t173.5 -65q132 0 132 112q0 75 -213 166q-321 138 -321 354q0 143 123 234.5t316 91.5q343 0 377 -284z
M299 1348v-92q8 -32 8 -56q-16 -76 0 -136q140 -88 220 28q68 -12 96 40q28 0 28 -24h24q4 48 -40 44l-4 12v44q52 4 44 56l-12 4q-12 -28 -40 -28q-24 60 -84 48q-8 40 -40 52l-8 32l-24 4q-44 48 -112 32q-40 -24 -56 -60zM403 1388q-68 -72 20 -56v40q140 -88 60 -160
q-104 -20 -164 52q8 72 44 124h40zM447 1276q40 -24 40 20q-8 12 -24 16q-20 -16 -16 -36zM343 1256q36 -12 44 20q-4 28 -28 28q-24 -20 -16 -48zM511 1160v-44q-92 -120 -188 -28q-32 84 56 100q76 12 132 -28zM439 1128q48 -24 48 32l-36 4q-12 -16 -12 -36zM355 1116
q40 -20 44 24q-12 24 -36 20q-12 -24 -8 -44zM427 1064h12q4 48 -40 48q-28 -68 28 -48z" />
    <glyph glyph-name="t" unicode="t" horiz-adv-x="714" 
d="M646 1005v-113h-162v-713q0 -67 43 -67q31 0 37 45l104 -10q-43 -158 -274 -158q-275 0 -275 234v669h-122v113h122v178q189 52 365 150v-328h162zM260 1077q32 -8 28 -36q-60 -24 -48 -84q-40 -8 -52 -40l-32 -8l-4 -24q-48 -44 -32 -112q24 -40 60 -56h108q4 8 12 8h28
q72 -12 120 -8q56 48 48 112q8 80 -60 116q12 68 -40 96q0 28 24 28v24q-48 4 -48 -44h-44q-16 16 -12 36q-32 8 -56 8v-16zM308 781q-60 -80 -164 -4l-4 44q28 -40 64 -12q-4 40 -48 32q48 80 120 92q76 -52 32 -152zM472 861q12 -52 -4 -96q-140 -116 -128 124
q12 24 28 40q76 0 104 -68zM244 865q20 16 20 36q-20 8 -36 4q-24 -36 16 -40zM404 861q16 48 -36 44q-12 -52 36 -44zM416 817q72 -28 48 32q-12 12 -28 8q-24 -16 -20 -40zM368 781q24 -12 44 -8q24 48 -32 44q-12 -16 -12 -36zM228 765l44 -4q12 48 -36 44
q-16 -20 -8 -40z" />
    <glyph glyph-name="u" unicode="u" horiz-adv-x="1001" 
d="M1059 1034v-1034h-365v161q-126 -180 -324 -180q-267 0 -267 260v767q184 8 365 26v-784q0 -102 62 -102q164 0 164 352v508q183 8 365 26zM548 1372q32 -8 28 -36q-60 -24 -48 -84q-40 -8 -52 -40l-32 -8l-4 -24q-48 -44 -32 -112q24 -40 60 -56h108q4 8 12 8h28
q72 -12 120 -8q56 48 48 112q8 80 -60 116q12 68 -40 96q0 28 24 28v24q-48 4 -48 -44h-44q-16 16 -12 36q-32 8 -56 8v-16zM596 1076q-60 -80 -164 -4l-4 44q28 -40 64 -12q-4 40 -48 32q48 80 120 92q76 -52 32 -152zM760 1156q12 -52 -4 -96q-140 -116 -128 124
q12 24 28 40q76 0 104 -68zM532 1160q20 16 20 36q-20 8 -36 4q-24 -36 16 -40zM692 1156q16 48 -36 44q-12 -52 36 -44zM704 1112q72 -28 48 32q-12 12 -28 8q-24 -16 -20 -40zM656 1076q24 -12 44 -8q24 48 -32 44q-12 -16 -12 -36zM516 1060l44 -4q12 48 -36 44
q-16 -20 -8 -40z" />
    <glyph glyph-name="v" unicode="v" horiz-adv-x="946" 
d="M920 1008l-339 -1008h-254l-350 1008h389l214 -675l220 675h120zM483 1095l-40 -40q-36 32 -68 0v-16q32 12 56 -16l-12 -28q0 -44 36 -64q-24 -32 -8 -60q-24 -28 0 -52q-8 -24 4 -40l-8 -12q104 -120 216 24l-4 12l44 44q104 36 64 144q-68 100 -160 72q-40 64 -92 36
l-24 24q24 24 -8 36q-32 -36 4 -64zM739 987q32 -64 -20 -104q-44 -44 -144 76q-20 56 32 80q84 4 132 -52zM723 995q-24 16 -44 24q-56 -112 44 -24zM603 959q36 4 36 36q-16 16 -36 16q-32 -28 0 -52zM631 851q-4 -28 0 -52q-40 -44 -92 -52l-20 -12q-20 12 -28 24
q28 12 44 36q-36 48 -56 -12q-4 20 -4 32l-4 20l-4 64q24 28 36 52q92 -8 128 -100zM651 923q40 -48 56 20q-16 12 -36 12q-16 -16 -20 -32zM527 875q-4 24 -12 36h-12q-48 -76 24 -36zM591 847q-44 -20 -16 -52q24 0 40 20q-4 20 -20 32h-4z" />
    <glyph glyph-name="w" unicode="w" horiz-adv-x="1397" 
d="M1375 1008l-331 -1008h-232l-137 511l-136 -511h-231l-331 1008h381l178 -592l144 592h236l154 -592l186 592h119zM746 1371q32 -8 28 -36q-60 -24 -48 -84q-40 -8 -52 -40l-32 -8l-4 -24q-48 -44 -32 -112q24 -40 60 -56h108q4 8 12 8h28q72 -12 120 -8q56 48 48 112
q8 80 -60 116q12 68 -40 96q0 28 24 28v24q-48 4 -48 -44h-44q-16 16 -12 36q-32 8 -56 8v-16zM794 1075q-60 -80 -164 -4l-4 44q28 -40 64 -12q-4 40 -48 32q48 80 120 92q76 -52 32 -152zM958 1155q12 -52 -4 -96q-140 -116 -128 124q12 24 28 40q76 0 104 -68zM730 1159
q20 16 20 36q-20 8 -36 4q-24 -36 16 -40zM890 1155q16 48 -36 44q-12 -52 36 -44zM902 1111q72 -28 48 32q-12 12 -28 8q-24 -16 -20 -40zM854 1075q24 -12 44 -8q24 48 -32 44q-12 -16 -12 -36zM714 1059l44 -4q12 48 -36 44q-16 -20 -8 -40z" />
    <glyph glyph-name="x" unicode="x" horiz-adv-x="1013" 
d="M933 1008l-297 -403l341 -605h-418l-189 330l-243 -330h-140l323 438l-320 570h420l165 -293l218 293h140zM25 668q32 -8 28 -36q-60 -24 -48 -84q-40 -8 -52 -40l-32 -8l-4 -24q-48 -44 -32 -112q24 -40 60 -56h108q4 8 12 8h28q72 -12 120 -8q56 48 48 112
q8 80 -60 116q12 68 -40 96q0 28 24 28v24q-48 4 -48 -44h-44q-16 16 -12 36q-32 8 -56 8v-16zM73 372q-60 -80 -164 -4l-4 44q28 -40 64 -12q-4 40 -48 32q48 80 120 92q76 -52 32 -152zM237 452q12 -52 -4 -96q-140 -116 -128 124q12 24 28 40q76 0 104 -68zM9 456
q20 16 20 36q-20 8 -36 4q-24 -36 16 -40zM169 452q16 48 -36 44q-12 -52 36 -44zM181 408q72 -28 48 32q-12 12 -28 8q-24 -16 -20 -40zM133 372q24 -12 44 -8q24 48 -32 44q-12 -16 -12 -36zM-7 356l44 -4q12 48 -36 44q-16 -20 -8 -40z" />
    <glyph glyph-name="y" unicode="y" horiz-adv-x="977" 
d="M948 1008l-462 -1138q-95 -234 -256 -234q-156 0 -212 133l126 91q15 -115 85 -115q79 0 128 133l27 72l-406 1058h401l203 -593l231 593h135zM40 230l-40 -40q-36 32 -68 0v-16q32 12 56 -16l-12 -28q0 -44 36 -64q-24 -32 -8 -60q-24 -28 0 -52q-8 -24 4 -40l-8 -12
q104 -120 216 24l-4 12l44 44q104 36 64 144q-68 100 -160 72q-40 64 -92 36l-24 24q24 24 -8 36q-32 -36 4 -64zM296 122q32 -64 -20 -104q-44 -44 -144 76q-20 56 32 80q84 4 132 -52zM280 130q-24 16 -44 24q-56 -112 44 -24zM160 94q36 4 36 36q-16 16 -36 16
q-32 -28 0 -52zM188 -14q-4 -28 0 -52q-40 -44 -92 -52l-20 -12q-20 12 -28 24q28 12 44 36q-36 48 -56 -12q-4 20 -4 32l-4 20l-4 64q24 28 36 52q92 -8 128 -100zM208 58q40 -48 56 20q-16 12 -36 12q-16 -16 -20 -32zM84 10q-4 24 -12 36h-12q-48 -76 24 -36zM148 -18
q-44 -20 -16 -52q24 0 40 20q-4 20 -20 32h-4z" />
    <glyph glyph-name="z" unicode="z" horiz-adv-x="890" 
d="M859 1008v-113l-441 -782h441v-113h-842v124l440 771h-397v113h799zM658 483q32 -8 28 -36q-60 -24 -48 -84q-40 -8 -52 -40l-32 -8l-4 -24q-48 -44 -32 -112q24 -40 60 -56h108q4 8 12 8h28q72 -12 120 -8q56 48 48 112q8 80 -60 116q12 68 -40 96q0 28 24 28v24
q-48 4 -48 -44h-44q-16 16 -12 36q-32 8 -56 8v-16zM706 187q-60 -80 -164 -4l-4 44q28 -40 64 -12q-4 40 -48 32q48 80 120 92q76 -52 32 -152zM870 267q12 -52 -4 -96q-140 -116 -128 124q12 24 28 40q76 0 104 -68zM642 271q20 16 20 36q-20 8 -36 4q-24 -36 16 -40z
M802 267q16 48 -36 44q-12 -52 36 -44zM814 223q72 -28 48 32q-12 12 -28 8q-24 -16 -20 -40zM766 187q24 -12 44 -8q24 48 -32 44q-12 -16 -12 -36zM626 171l44 -4q12 48 -36 44q-16 -20 -8 -40z" />
    <glyph glyph-name="braceleft" unicode="{" 
 />
    <glyph glyph-name="bar" unicode="|" 
 />
    <glyph glyph-name="braceright" unicode="}" 
 />
    <glyph glyph-name="asciitilde" unicode="~" 
 />
    <glyph glyph-name="Adieresis" 
 />
    <glyph glyph-name="Aring" 
 />
    <glyph glyph-name="Ccedilla" 
 />
    <glyph glyph-name="Eacute" 
 />
    <glyph glyph-name="Ntilde" 
 />
    <glyph glyph-name="Odieresis" unicode="&#x85;" 
 />
    <glyph glyph-name="Udieresis" 
 />
    <glyph glyph-name="aacute" 
 />
    <glyph glyph-name="agrave" 
 />
    <glyph glyph-name="acircumflex" 
 />
    <glyph glyph-name="adieresis" 
 />
    <glyph glyph-name="atilde" 
 />
    <glyph glyph-name="aring" 
 />
    <glyph glyph-name="ccedilla" 
 />
    <glyph glyph-name="eacute" 
 />
    <glyph glyph-name="egrave" 
 />
    <glyph glyph-name="ecircumflex" 
 />
    <glyph glyph-name="edieresis" 
 />
    <glyph glyph-name="iacute" 
 />
    <glyph glyph-name="igrave" 
 />
    <glyph glyph-name="icircumflex" 
 />
    <glyph glyph-name="idieresis" 
 />
    <glyph glyph-name="ntilde" 
 />
    <glyph glyph-name="oacute" 
 />
    <glyph glyph-name="ograve" 
 />
    <glyph glyph-name="ocircumflex" 
 />
    <glyph glyph-name="odieresis" 
 />
    <glyph glyph-name="otilde" 
 />
    <glyph glyph-name="uacute" 
 />
    <glyph glyph-name="ugrave" 
 />
    <glyph glyph-name="ucircumflex" 
 />
    <glyph glyph-name="udieresis" 
 />
    <glyph glyph-name="degree" unicode="&#xa1;" 
 />
    <glyph glyph-name="cent" unicode="&#xa2;" 
 />
    <glyph glyph-name="sterling" unicode="&#xa3;" 
 />
    <glyph glyph-name="section" unicode="&#xa4;" 
 />
    <glyph glyph-name="bullet" unicode="&#xa5;" 
 />
    <glyph glyph-name="paragraph" unicode="&#xa6;" 
 />
    <glyph glyph-name="germandbls" unicode="&#xa7;" 
 />
    <glyph glyph-name="registered" unicode="&#xa8;" 
 />
    <glyph glyph-name="copyright" unicode="&#xa9;" 
 />
    <glyph glyph-name="trademark" unicode="&#xaa;" 
 />
    <glyph glyph-name="acute" unicode="&#xab;" 
 />
    <glyph glyph-name="dieresis" unicode="&#xac;" 
 />
    <glyph glyph-name="notequal" unicode="&#xad;" 
 />
    <glyph glyph-name="AE" unicode="&#xae;" 
 />
    <glyph glyph-name="Oslash" unicode="&#xaf;" 
 />
    <glyph glyph-name="infinity" unicode="&#xb0;" 
 />
    <glyph glyph-name="plusminus" unicode="&#xb1;" 
 />
    <glyph glyph-name="lessequal" unicode="&#xb2;" 
 />
    <glyph glyph-name="greaterequal" unicode="&#xb3;" 
 />
    <glyph glyph-name="yen" unicode="&#xb4;" 
 />
    <glyph glyph-name="mu" unicode="&#xb5;" 
 />
    <glyph glyph-name="partialdiff" unicode="&#xb6;" 
 />
    <glyph glyph-name="summation" unicode="&#xb7;" 
 />
    <glyph glyph-name="product" unicode="&#xb8;" 
 />
    <glyph glyph-name="pi" unicode="&#xb9;" 
 />
    <glyph glyph-name="integral" unicode="&#xba;" 
 />
    <glyph glyph-name="ordfeminine" unicode="&#xbb;" 
 />
    <glyph glyph-name="ordmasculine" unicode="&#xbc;" 
 />
    <glyph glyph-name="ohm" unicode="&#xbd;" 
 />
    <glyph glyph-name="ae" unicode="&#xbe;" 
 />
    <glyph glyph-name="oslash" unicode="&#xbf;" 
 />
    <glyph glyph-name="questiondown" unicode="&#xc0;" 
 />
    <glyph glyph-name="exclamdown" unicode="&#xc1;" 
 />
    <glyph glyph-name="logicalnot" unicode="&#xc2;" 
 />
    <glyph glyph-name="radical" unicode="&#xc3;" 
 />
    <glyph glyph-name="florin" unicode="&#xc4;" 
 />
    <glyph glyph-name="approxequal" unicode="&#xc5;" 
 />
    <glyph glyph-name="increment" unicode="&#xc6;" 
 />
    <glyph glyph-name="guillemotleft" unicode="&#xc7;" 
 />
    <glyph glyph-name="guillemotright" unicode="&#xc8;" 
 />
    <glyph glyph-name="ellipsis" unicode="&#xc9;" 
 />
    <glyph glyph-name="nbspace" unicode="&#xca;" 
 />
    <glyph glyph-name="Agrave" unicode="&#xcb;" 
 />
    <glyph glyph-name="Atilde" unicode="&#xcc;" 
 />
    <glyph glyph-name="Otilde" unicode="&#xcd;" 
 />
    <glyph glyph-name="OE" unicode="&#xce;" 
 />
    <glyph glyph-name="oe" unicode="&#xcf;" 
 />
    <glyph glyph-name="endash" unicode="&#xd0;" 
 />
    <glyph glyph-name="emdash" unicode="&#xd1;" 
 />
    <glyph glyph-name="quotedblleft" unicode="&#xd2;" 
 />
    <glyph glyph-name="quotedblright" unicode="&#xd3;" 
 />
    <glyph glyph-name="quoteleft" unicode="&#xd4;" 
 />
    <glyph glyph-name="quoteright" unicode="&#xd5;" 
 />
    <glyph glyph-name="divide" unicode="&#xd6;" 
 />
    <glyph glyph-name="lozenge" unicode="&#xd7;" 
 />
    <glyph glyph-name="ydieresis" unicode="&#xd8;" 
 />
    <glyph glyph-name="Ydieresis" unicode="&#xd9;" 
 />
    <glyph glyph-name="fraction" unicode="&#xda;" 
 />
    <glyph glyph-name="currency" unicode="&#xdb;" 
 />
    <glyph glyph-name="guilsinglleft" unicode="&#xdc;" 
 />
    <glyph glyph-name="guilsinglright" unicode="&#xdd;" 
 />
    <glyph glyph-name="fi" unicode="&#xde;" 
 />
    <glyph glyph-name="fl" unicode="&#xdf;" 
 />
    <glyph glyph-name="daggerdbl" unicode="&#xe0;" 
 />
    <glyph glyph-name="periodcentered" unicode="&#xe1;" 
 />
    <glyph glyph-name="quotesinglbase" unicode="&#xe2;" 
 />
    <glyph glyph-name="quotedblbase" unicode="&#xe3;" 
 />
    <glyph glyph-name="perthousand" unicode="&#xe4;" 
 />
    <glyph glyph-name="Acircumflex" unicode="&#xe5;" 
 />
    <glyph glyph-name="Ecircumflex" unicode="&#xe6;" 
 />
    <glyph glyph-name="Aacute" unicode="&#xe7;" 
 />
    <glyph glyph-name="Edieresis" unicode="&#xe8;" 
 />
    <glyph glyph-name="Egrave" unicode="&#xe9;" 
 />
    <glyph glyph-name="Iacute" unicode="&#xea;" 
 />
    <glyph glyph-name="Icircumflex" unicode="&#xeb;" 
 />
    <glyph glyph-name="Idieresis" unicode="&#xec;" 
 />
    <glyph glyph-name="Igrave" unicode="&#xed;" 
 />
    <glyph glyph-name="Oacute" unicode="&#xee;" 
 />
    <glyph glyph-name="Ocircumflex" unicode="&#xef;" 
 />
    <glyph glyph-name="apple" unicode="&#xf0;" 
 />
    <glyph glyph-name="Ograve" unicode="&#xf1;" 
 />
    <glyph glyph-name="Uacute" unicode="&#xf2;" 
 />
    <glyph glyph-name="Ucircumflex" unicode="&#xf3;" 
 />
    <glyph glyph-name="Ugrave" unicode="&#xf4;" 
 />
    <glyph glyph-name="dotlessi" unicode="&#xf5;" 
 />
    <glyph glyph-name="circumflex" unicode="&#xf6;" 
 />
    <glyph glyph-name="tilde" unicode="&#xf7;" 
 />
    <glyph glyph-name="macron" unicode="&#xf8;" 
 />
    <glyph glyph-name="breve" unicode="&#xf9;" 
 />
    <glyph glyph-name="dotaccent" unicode="&#xfa;" 
 />
    <glyph glyph-name="ring" unicode="&#xfb;" 
 />
    <glyph glyph-name="cedilla" unicode="&#xfc;" 
 />
    <glyph glyph-name="hungarumlaut" unicode="&#xfd;" 
 />
    <glyph glyph-name="ogonek" unicode="&#xfe;" 
 />
    <glyph glyph-name="caron" unicode="&#xff;" 
 />
    <glyph glyph-name="dagger" 
 />
  </font>
</defs>
</svg>
